<?xml version="1.0" standalone="no"?>
<!DOCTYPE svg PUBLIC "-//W3C//DTD SVG 20010904//EN"
 "http://www.w3.org/TR/2001/REC-SVG-20010904/DTD/svg10.dtd">
<svg version="1.0" xmlns="http://www.w3.org/2000/svg"
 width="512.000000pt" height="512.000000pt" viewBox="0 0 512.000000 512.000000"
 preserveAspectRatio="xMidYMid meet">
<metadata>
Created by potrace 1.11, written by Peter Selinger 2001-2013
</metadata>
<g transform="translate(0.000000,512.000000) scale(0.100000,-0.100000)"
fill="#000000" stroke="none">
<path d="M4990 5000 c-36 -4 -94 -11 -130 -15 -36 -4 -78 -8 -95 -10 -65 -8
-142 -16 -190 -21 -27 -2 -66 -7 -85 -9 -19 -3 -62 -7 -95 -10 -101 -9 -154
-15 -183 -19 -15 -3 -61 -8 -102 -11 -41 -4 -82 -8 -90 -10 -8 -1 -51 -6 -95
-9 -44 -4 -91 -9 -105 -11 -14 -2 -54 -6 -90 -10 -36 -4 -76 -8 -90 -10 -14
-2 -56 -6 -95 -10 -38 -3 -86 -8 -105 -10 -19 -2 -60 -7 -90 -10 -30 -3 -71
-8 -90 -10 -19 -3 -60 -7 -90 -10 -75 -6 -147 -14 -195 -20 -45 -5 -112 -12
-195 -20 -64 -6 -144 -15 -180 -20 -14 -2 -59 -7 -100 -11 -157 -14 -251 -24
-280 -29 -14 -3 -59 -7 -100 -10 -41 -3 -86 -8 -100 -10 -26 -4 -91 -11 -180
-20 -85 -9 -154 -16 -190 -20 -19 -2 -57 -6 -85 -9 -27 -3 -93 -10 -145 -15
-52 -6 -124 -13 -160 -16 -36 -3 -76 -8 -90 -10 -23 -3 -52 -6 -200 -21 -25
-2 -67 -7 -95 -10 -55 -7 -65 -8 -180 -19 -44 -4 -88 -9 -97 -10 -14 -3 -75
-10 -178 -20 -14 -2 -61 -6 -105 -9 -44 -4 -87 -9 -95 -11 -8 -2 -44 -7 -80
-10 -36 -3 -74 -7 -85 -10 -11 -2 -28 -4 -37 -4 -17 -1 -18 -89 -18 -1698 l1
-1698 20 25 c11 14 39 48 61 75 57 69 198 206 277 269 270 214 631 380 946
436 33 5 71 12 85 15 43 8 93 14 169 20 l74 6 -7 -43 c-26 -168 -16 -360 29
-523 22 -80 44 -134 31 -75 -27 118 -38 368 -22 520 14 139 63 303 134 445 31
63 88 158 112 188 124 155 190 217 299 284 125 76 368 170 526 202 130 27 580
157 635 183 124 59 251 217 278 343 5 22 7 80 6 128 -6 162 -65 220 -229 224
-169 4 -260 -34 -399 -166 -97 -93 -180 -148 -261 -176 -78 -26 -84 -27 -195
-30 -239 -7 -414 90 -468 260 -13 39 -24 88 -25 110 l-2 40 80 28 c44 16 87
33 96 37 24 12 28 4 22 -40 -7 -54 33 -136 84 -170 32 -22 47 -25 122 -25 128
1 166 23 302 170 210 228 414 319 714 318 234 -1 409 -64 512 -183 63 -73 116
-185 129 -268 3 -21 7 -44 9 -52 25 -93 26 -409 1 -536 -2 -12 -7 -38 -10 -57
-11 -68 -77 -312 -117 -432 -85 -253 -174 -452 -286 -645 -187 -320 -646
-1046 -708 -1120 -7 -8 -25 -51 -40 -94 -33 -101 -115 -385 -115 -402 0 -7 27
-14 77 -19 43 -4 87 -9 98 -10 11 -2 52 -7 90 -10 39 -4 81 -9 95 -10 125 -13
180 -20 270 -30 19 -2 63 -7 98 -10 35 -4 71 -8 81 -10 10 -2 55 -6 102 -10
46 -4 93 -9 104 -11 11 -2 47 -6 80 -9 33 -3 96 -10 140 -15 44 -5 107 -12
140 -15 33 -3 71 -8 85 -10 14 -2 52 -7 85 -10 77 -7 151 -15 195 -20 19 -3
64 -7 100 -11 36 -3 76 -7 90 -9 14 -2 52 -7 85 -10 81 -8 121 -13 181 -20
l51 -6 0 2450 0 2451 -31 -1 c-17 -1 -60 -5 -96 -9z"/>
</g>
</svg>
